<?xml version="1.0" standalone="no"?><!DOCTYPE svg PUBLIC "-//W3C//DTD SVG 20010904//EN" "http://www.w3.org/TR/2001/REC-SVG-20010904/DTD/svg10.dtd"><svg xmlns="http://www.w3.org/2000/svg" version="1.0" width="500.000000pt" height="500.000000pt" viewBox="0 0 500.000000 500.000000" preserveAspectRatio="xMidYMid meet">

<g transform="translate(0.000000,500.000000) scale(0.100000,-0.100000)" fill="#ffffff" stroke="none">
<path d="M2493 3768 c-4 -7 -12 -21 -18 -31 -5 -10 -179 -300 -387 -645 -459 -766 -498 -832 -491 -832 3 0 33 13 67 29 119 56 335 124 481 151 l60 12 110 176 c61 97 128 205 151 240 l41 64 125 -199 c69 -109 130 -207 136 -219 10 -19 25 -21 204 -32 106 -6 219 -16 251 -22 33 -6 61 -9 64 -6 5 5 -51 100 -346 596 -97 162 -181 304 -187 315 -9 16 -135 230 -227 383 -21 36 -23 37 -34 20z" data-id="elem_0"/>
<path d="M2645 2353 c-316 -16 -682 -106 -930 -227 -106 -52 -256 -146 -302 -188 -21 -19 -184 -284 -199 -321 -6 -15 9 -17 151 -17 l158 0 61 67 c130 142 356 318 538 416 213 116 527 210 835 249 l98 13 -55 6 c-55 7 -242 8 -355 2z" data-id="elem_1"/>
<path d="M3300 2313 c-614 -61 -1045 -240 -1404 -583 -53 -52 -102 -102 -107 -112 -9 -17 3 -18 294 -18 l304 0 26 48 c44 82 144 207 223 281 168 156 403 282 647 345 50 13 93 29 95 35 4 11 -7 11 -78 4z" data-id="elem_2"/>
<path d="M3330 2210 c-230 -80 -419 -209 -563 -383 -55 -66 -137 -199 -137 -221 0 -3 261 -6 580 -6 319 0 580 3 580 6 0 4 -65 115 -144 248 -78 132 -162 274 -185 314 -23 39 -43 72 -44 72 -1 0 -40 -14 -87 -30z" data-id="elem_3"/>
</g>
</svg>